<mxfile host="app.diagrams.net" modified="2023-03-07T13:48:35.361Z" agent="5.0 (Windows NT 10.0; Win64; x64) AppleWebKit/537.36 (KHTML, like Gecko) Chrome/97.0.4692.71 Safari/537.36" etag="cFqgTAO8ldMy15FEPsTs" version="21.0.2" type="github">
  <diagram name="第 1 页" id="1EWKLlkOCIbgigQBTRpv">
    <mxGraphModel dx="1050" dy="548" grid="0" gridSize="10" guides="1" tooltips="1" connect="1" arrows="1" fold="1" page="1" pageScale="1" pageWidth="827" pageHeight="1169" math="0" shadow="0">
      <root>
        <mxCell id="0" />
        <mxCell id="1" parent="0" />
        <mxCell id="BA8NR5xpLqI8vCSCT3HV-2" value="" style="rounded=0;whiteSpace=wrap;html=1;comic=1;fillColor=#fff2cc;strokeColor=#d6b656;" vertex="1" parent="1">
          <mxGeometry x="70" y="27.5" width="670" height="370" as="geometry" />
        </mxCell>
        <mxCell id="BA8NR5xpLqI8vCSCT3HV-3" value="&lt;font style=&quot;font-size: 16px;&quot;&gt;web服务终点/原点（Localhost）&lt;br&gt;上层协议栈&lt;/font&gt;" style="rounded=1;whiteSpace=wrap;html=1;comic=1;fillColor=#f5f5f5;fontColor=#333333;strokeColor=#666666;" vertex="1" parent="1">
          <mxGeometry x="170" y="50" width="510" height="60" as="geometry" />
        </mxCell>
        <mxCell id="BA8NR5xpLqI8vCSCT3HV-4" value="&lt;font style=&quot;font-size: 16px;&quot;&gt;用户空间&lt;/font&gt;" style="text;html=1;align=center;verticalAlign=middle;resizable=0;points=[];autosize=1;strokeColor=none;fillColor=none;" vertex="1" parent="1">
          <mxGeometry x="70" y="30" width="90" height="30" as="geometry" />
        </mxCell>
        <mxCell id="BA8NR5xpLqI8vCSCT3HV-5" value="&lt;span style=&quot;font-size: 16px;&quot;&gt;内核空间&lt;/span&gt;" style="text;html=1;align=center;verticalAlign=middle;resizable=0;points=[];autosize=1;strokeColor=none;fillColor=none;" vertex="1" parent="1">
          <mxGeometry x="70" y="130" width="90" height="30" as="geometry" />
        </mxCell>
        <mxCell id="BA8NR5xpLqI8vCSCT3HV-6" value="&lt;font style=&quot;font-size: 16px;&quot;&gt;网卡&lt;/font&gt;" style="rounded=1;whiteSpace=wrap;html=1;comic=1;fillColor=#fff2cc;strokeColor=#d6b656;" vertex="1" parent="1">
          <mxGeometry x="70" y="430" width="670" height="60" as="geometry" />
        </mxCell>
        <mxCell id="BA8NR5xpLqI8vCSCT3HV-16" value="" style="shape=table;startSize=0;container=1;collapsible=0;childLayout=tableLayout;fontSize=15;comic=1;fillColor=#dae8fc;strokeColor=#6c8ebf;" vertex="1" parent="1">
          <mxGeometry x="110" y="300" width="100" height="81" as="geometry" />
        </mxCell>
        <mxCell id="BA8NR5xpLqI8vCSCT3HV-17" value="" style="shape=tableRow;horizontal=0;startSize=0;swimlaneHead=0;swimlaneBody=0;strokeColor=inherit;top=0;left=0;bottom=0;right=0;collapsible=0;dropTarget=0;fillColor=none;points=[[0,0.5],[1,0.5]];portConstraint=eastwest;" vertex="1" parent="BA8NR5xpLqI8vCSCT3HV-16">
          <mxGeometry width="100" height="21" as="geometry" />
        </mxCell>
        <mxCell id="BA8NR5xpLqI8vCSCT3HV-18" value="PREROUTING" style="shape=partialRectangle;html=1;whiteSpace=wrap;connectable=0;strokeColor=#b85450;overflow=hidden;fillColor=#f8cecc;top=0;left=0;bottom=0;right=0;pointerEvents=1;" vertex="1" parent="BA8NR5xpLqI8vCSCT3HV-17">
          <mxGeometry width="100" height="21" as="geometry">
            <mxRectangle width="100" height="21" as="alternateBounds" />
          </mxGeometry>
        </mxCell>
        <mxCell id="BA8NR5xpLqI8vCSCT3HV-19" value="" style="shape=tableRow;horizontal=0;startSize=0;swimlaneHead=0;swimlaneBody=0;strokeColor=inherit;top=0;left=0;bottom=0;right=0;collapsible=0;dropTarget=0;fillColor=none;points=[[0,0.5],[1,0.5]];portConstraint=eastwest;" vertex="1" parent="BA8NR5xpLqI8vCSCT3HV-16">
          <mxGeometry y="21" width="100" height="20" as="geometry" />
        </mxCell>
        <mxCell id="BA8NR5xpLqI8vCSCT3HV-20" value="raw" style="shape=partialRectangle;html=1;whiteSpace=wrap;connectable=0;strokeColor=inherit;overflow=hidden;fillColor=none;top=0;left=0;bottom=0;right=0;pointerEvents=1;" vertex="1" parent="BA8NR5xpLqI8vCSCT3HV-19">
          <mxGeometry width="100" height="20" as="geometry">
            <mxRectangle width="100" height="20" as="alternateBounds" />
          </mxGeometry>
        </mxCell>
        <mxCell id="BA8NR5xpLqI8vCSCT3HV-21" value="" style="shape=tableRow;horizontal=0;startSize=0;swimlaneHead=0;swimlaneBody=0;strokeColor=inherit;top=0;left=0;bottom=0;right=0;collapsible=0;dropTarget=0;fillColor=none;points=[[0,0.5],[1,0.5]];portConstraint=eastwest;" vertex="1" parent="BA8NR5xpLqI8vCSCT3HV-16">
          <mxGeometry y="41" width="100" height="21" as="geometry" />
        </mxCell>
        <mxCell id="BA8NR5xpLqI8vCSCT3HV-22" value="mangle" style="shape=partialRectangle;html=1;whiteSpace=wrap;connectable=0;strokeColor=inherit;overflow=hidden;fillColor=none;top=0;left=0;bottom=0;right=0;pointerEvents=1;" vertex="1" parent="BA8NR5xpLqI8vCSCT3HV-21">
          <mxGeometry width="100" height="21" as="geometry">
            <mxRectangle width="100" height="21" as="alternateBounds" />
          </mxGeometry>
        </mxCell>
        <mxCell id="BA8NR5xpLqI8vCSCT3HV-23" value="" style="shape=tableRow;horizontal=0;startSize=0;swimlaneHead=0;swimlaneBody=0;strokeColor=inherit;top=0;left=0;bottom=0;right=0;collapsible=0;dropTarget=0;fillColor=none;points=[[0,0.5],[1,0.5]];portConstraint=eastwest;" vertex="1" parent="BA8NR5xpLqI8vCSCT3HV-16">
          <mxGeometry y="62" width="100" height="19" as="geometry" />
        </mxCell>
        <mxCell id="BA8NR5xpLqI8vCSCT3HV-24" value="nat" style="shape=partialRectangle;html=1;whiteSpace=wrap;connectable=0;strokeColor=inherit;overflow=hidden;fillColor=none;top=0;left=0;bottom=0;right=0;pointerEvents=1;" vertex="1" parent="BA8NR5xpLqI8vCSCT3HV-23">
          <mxGeometry width="100" height="19" as="geometry">
            <mxRectangle width="100" height="19" as="alternateBounds" />
          </mxGeometry>
        </mxCell>
        <mxCell id="BA8NR5xpLqI8vCSCT3HV-25" value="" style="shape=table;startSize=0;container=1;collapsible=0;childLayout=tableLayout;fontSize=15;comic=1;fillColor=#dae8fc;strokeColor=#6c8ebf;" vertex="1" parent="1">
          <mxGeometry x="195" y="172" width="100" height="81" as="geometry" />
        </mxCell>
        <mxCell id="BA8NR5xpLqI8vCSCT3HV-26" value="" style="shape=tableRow;horizontal=0;startSize=0;swimlaneHead=0;swimlaneBody=0;strokeColor=inherit;top=0;left=0;bottom=0;right=0;collapsible=0;dropTarget=0;fillColor=none;points=[[0,0.5],[1,0.5]];portConstraint=eastwest;" vertex="1" parent="BA8NR5xpLqI8vCSCT3HV-25">
          <mxGeometry width="100" height="21" as="geometry" />
        </mxCell>
        <mxCell id="BA8NR5xpLqI8vCSCT3HV-27" value="INPUT" style="shape=partialRectangle;html=1;whiteSpace=wrap;connectable=0;strokeColor=#b85450;overflow=hidden;fillColor=#f8cecc;top=0;left=0;bottom=0;right=0;pointerEvents=1;" vertex="1" parent="BA8NR5xpLqI8vCSCT3HV-26">
          <mxGeometry width="100" height="21" as="geometry">
            <mxRectangle width="100" height="21" as="alternateBounds" />
          </mxGeometry>
        </mxCell>
        <mxCell id="BA8NR5xpLqI8vCSCT3HV-28" value="" style="shape=tableRow;horizontal=0;startSize=0;swimlaneHead=0;swimlaneBody=0;strokeColor=inherit;top=0;left=0;bottom=0;right=0;collapsible=0;dropTarget=0;fillColor=none;points=[[0,0.5],[1,0.5]];portConstraint=eastwest;" vertex="1" parent="BA8NR5xpLqI8vCSCT3HV-25">
          <mxGeometry y="21" width="100" height="20" as="geometry" />
        </mxCell>
        <mxCell id="BA8NR5xpLqI8vCSCT3HV-29" value="mangle" style="shape=partialRectangle;html=1;whiteSpace=wrap;connectable=0;strokeColor=inherit;overflow=hidden;fillColor=none;top=0;left=0;bottom=0;right=0;pointerEvents=1;" vertex="1" parent="BA8NR5xpLqI8vCSCT3HV-28">
          <mxGeometry width="100" height="20" as="geometry">
            <mxRectangle width="100" height="20" as="alternateBounds" />
          </mxGeometry>
        </mxCell>
        <mxCell id="BA8NR5xpLqI8vCSCT3HV-30" value="" style="shape=tableRow;horizontal=0;startSize=0;swimlaneHead=0;swimlaneBody=0;strokeColor=inherit;top=0;left=0;bottom=0;right=0;collapsible=0;dropTarget=0;fillColor=none;points=[[0,0.5],[1,0.5]];portConstraint=eastwest;" vertex="1" parent="BA8NR5xpLqI8vCSCT3HV-25">
          <mxGeometry y="41" width="100" height="21" as="geometry" />
        </mxCell>
        <mxCell id="BA8NR5xpLqI8vCSCT3HV-31" value="nat" style="shape=partialRectangle;html=1;whiteSpace=wrap;connectable=0;strokeColor=inherit;overflow=hidden;fillColor=none;top=0;left=0;bottom=0;right=0;pointerEvents=1;" vertex="1" parent="BA8NR5xpLqI8vCSCT3HV-30">
          <mxGeometry width="100" height="21" as="geometry">
            <mxRectangle width="100" height="21" as="alternateBounds" />
          </mxGeometry>
        </mxCell>
        <mxCell id="BA8NR5xpLqI8vCSCT3HV-32" value="" style="shape=tableRow;horizontal=0;startSize=0;swimlaneHead=0;swimlaneBody=0;strokeColor=inherit;top=0;left=0;bottom=0;right=0;collapsible=0;dropTarget=0;fillColor=none;points=[[0,0.5],[1,0.5]];portConstraint=eastwest;" vertex="1" parent="BA8NR5xpLqI8vCSCT3HV-25">
          <mxGeometry y="62" width="100" height="19" as="geometry" />
        </mxCell>
        <mxCell id="BA8NR5xpLqI8vCSCT3HV-33" value="filter" style="shape=partialRectangle;html=1;whiteSpace=wrap;connectable=0;strokeColor=inherit;overflow=hidden;fillColor=none;top=0;left=0;bottom=0;right=0;pointerEvents=1;" vertex="1" parent="BA8NR5xpLqI8vCSCT3HV-32">
          <mxGeometry width="100" height="19" as="geometry">
            <mxRectangle width="100" height="19" as="alternateBounds" />
          </mxGeometry>
        </mxCell>
        <mxCell id="BA8NR5xpLqI8vCSCT3HV-34" value="" style="shape=table;startSize=0;container=1;collapsible=0;childLayout=tableLayout;comic=1;fillColor=#dae8fc;strokeColor=#6c8ebf;" vertex="1" parent="1">
          <mxGeometry x="355" y="300" width="100" height="60" as="geometry" />
        </mxCell>
        <mxCell id="BA8NR5xpLqI8vCSCT3HV-35" value="" style="shape=tableRow;horizontal=0;startSize=0;swimlaneHead=0;swimlaneBody=0;strokeColor=inherit;top=0;left=0;bottom=0;right=0;collapsible=0;dropTarget=0;fillColor=none;points=[[0,0.5],[1,0.5]];portConstraint=eastwest;" vertex="1" parent="BA8NR5xpLqI8vCSCT3HV-34">
          <mxGeometry width="100" height="20" as="geometry" />
        </mxCell>
        <mxCell id="BA8NR5xpLqI8vCSCT3HV-36" value="FORWARD" style="shape=partialRectangle;html=1;whiteSpace=wrap;connectable=0;strokeColor=#b85450;overflow=hidden;fillColor=#f8cecc;top=0;left=0;bottom=0;right=0;pointerEvents=1;" vertex="1" parent="BA8NR5xpLqI8vCSCT3HV-35">
          <mxGeometry width="100" height="20" as="geometry">
            <mxRectangle width="100" height="20" as="alternateBounds" />
          </mxGeometry>
        </mxCell>
        <mxCell id="BA8NR5xpLqI8vCSCT3HV-37" value="" style="shape=tableRow;horizontal=0;startSize=0;swimlaneHead=0;swimlaneBody=0;strokeColor=inherit;top=0;left=0;bottom=0;right=0;collapsible=0;dropTarget=0;fillColor=none;points=[[0,0.5],[1,0.5]];portConstraint=eastwest;" vertex="1" parent="BA8NR5xpLqI8vCSCT3HV-34">
          <mxGeometry y="20" width="100" height="21" as="geometry" />
        </mxCell>
        <mxCell id="BA8NR5xpLqI8vCSCT3HV-38" value="mangle" style="shape=partialRectangle;html=1;whiteSpace=wrap;connectable=0;strokeColor=inherit;overflow=hidden;fillColor=none;top=0;left=0;bottom=0;right=0;pointerEvents=1;" vertex="1" parent="BA8NR5xpLqI8vCSCT3HV-37">
          <mxGeometry width="100" height="21" as="geometry">
            <mxRectangle width="100" height="21" as="alternateBounds" />
          </mxGeometry>
        </mxCell>
        <mxCell id="BA8NR5xpLqI8vCSCT3HV-39" value="" style="shape=tableRow;horizontal=0;startSize=0;swimlaneHead=0;swimlaneBody=0;strokeColor=inherit;top=0;left=0;bottom=0;right=0;collapsible=0;dropTarget=0;fillColor=none;points=[[0,0.5],[1,0.5]];portConstraint=eastwest;" vertex="1" parent="BA8NR5xpLqI8vCSCT3HV-34">
          <mxGeometry y="41" width="100" height="19" as="geometry" />
        </mxCell>
        <mxCell id="BA8NR5xpLqI8vCSCT3HV-40" value="filter" style="shape=partialRectangle;html=1;whiteSpace=wrap;connectable=0;strokeColor=inherit;overflow=hidden;fillColor=none;top=0;left=0;bottom=0;right=0;pointerEvents=1;" vertex="1" parent="BA8NR5xpLqI8vCSCT3HV-39">
          <mxGeometry width="100" height="19" as="geometry">
            <mxRectangle width="100" height="19" as="alternateBounds" />
          </mxGeometry>
        </mxCell>
        <mxCell id="BA8NR5xpLqI8vCSCT3HV-41" value="" style="shape=table;startSize=0;container=1;collapsible=0;childLayout=tableLayout;comic=1;" vertex="1" parent="1">
          <mxGeometry x="480" y="172" width="90" height="105" as="geometry" />
        </mxCell>
        <mxCell id="BA8NR5xpLqI8vCSCT3HV-42" value="" style="shape=tableRow;horizontal=0;startSize=0;swimlaneHead=0;swimlaneBody=0;strokeColor=inherit;top=0;left=0;bottom=0;right=0;collapsible=0;dropTarget=0;fillColor=none;points=[[0,0.5],[1,0.5]];portConstraint=eastwest;" vertex="1" parent="BA8NR5xpLqI8vCSCT3HV-41">
          <mxGeometry width="90" height="21" as="geometry" />
        </mxCell>
        <mxCell id="BA8NR5xpLqI8vCSCT3HV-43" value="OUTPUT" style="shape=partialRectangle;html=1;whiteSpace=wrap;connectable=0;strokeColor=#b85450;overflow=hidden;fillColor=#f8cecc;top=0;left=0;bottom=0;right=0;pointerEvents=1;comic=1;" vertex="1" parent="BA8NR5xpLqI8vCSCT3HV-42">
          <mxGeometry width="90" height="21" as="geometry">
            <mxRectangle width="90" height="21" as="alternateBounds" />
          </mxGeometry>
        </mxCell>
        <mxCell id="BA8NR5xpLqI8vCSCT3HV-44" value="" style="shape=tableRow;horizontal=0;startSize=0;swimlaneHead=0;swimlaneBody=0;strokeColor=inherit;top=0;left=0;bottom=0;right=0;collapsible=0;dropTarget=0;fillColor=none;points=[[0,0.5],[1,0.5]];portConstraint=eastwest;" vertex="1" parent="BA8NR5xpLqI8vCSCT3HV-41">
          <mxGeometry y="21" width="90" height="21" as="geometry" />
        </mxCell>
        <mxCell id="BA8NR5xpLqI8vCSCT3HV-45" value="raw" style="shape=partialRectangle;html=1;whiteSpace=wrap;connectable=0;strokeColor=#6c8ebf;overflow=hidden;fillColor=#dae8fc;top=0;left=0;bottom=0;right=0;pointerEvents=1;" vertex="1" parent="BA8NR5xpLqI8vCSCT3HV-44">
          <mxGeometry width="90" height="21" as="geometry">
            <mxRectangle width="90" height="21" as="alternateBounds" />
          </mxGeometry>
        </mxCell>
        <mxCell id="BA8NR5xpLqI8vCSCT3HV-46" value="" style="shape=tableRow;horizontal=0;startSize=0;swimlaneHead=0;swimlaneBody=0;strokeColor=inherit;top=0;left=0;bottom=0;right=0;collapsible=0;dropTarget=0;fillColor=none;points=[[0,0.5],[1,0.5]];portConstraint=eastwest;" vertex="1" parent="BA8NR5xpLqI8vCSCT3HV-41">
          <mxGeometry y="42" width="90" height="21" as="geometry" />
        </mxCell>
        <mxCell id="BA8NR5xpLqI8vCSCT3HV-47" value="mangle" style="shape=partialRectangle;html=1;whiteSpace=wrap;connectable=0;strokeColor=#6c8ebf;overflow=hidden;fillColor=#dae8fc;top=0;left=0;bottom=0;right=0;pointerEvents=1;" vertex="1" parent="BA8NR5xpLqI8vCSCT3HV-46">
          <mxGeometry width="90" height="21" as="geometry">
            <mxRectangle width="90" height="21" as="alternateBounds" />
          </mxGeometry>
        </mxCell>
        <mxCell id="BA8NR5xpLqI8vCSCT3HV-48" value="" style="shape=tableRow;horizontal=0;startSize=0;swimlaneHead=0;swimlaneBody=0;strokeColor=inherit;top=0;left=0;bottom=0;right=0;collapsible=0;dropTarget=0;fillColor=none;points=[[0,0.5],[1,0.5]];portConstraint=eastwest;" vertex="1" parent="BA8NR5xpLqI8vCSCT3HV-41">
          <mxGeometry y="63" width="90" height="21" as="geometry" />
        </mxCell>
        <mxCell id="BA8NR5xpLqI8vCSCT3HV-49" value="nat" style="shape=partialRectangle;html=1;whiteSpace=wrap;connectable=0;strokeColor=#6c8ebf;overflow=hidden;fillColor=#dae8fc;top=0;left=0;bottom=0;right=0;pointerEvents=1;" vertex="1" parent="BA8NR5xpLqI8vCSCT3HV-48">
          <mxGeometry width="90" height="21" as="geometry">
            <mxRectangle width="90" height="21" as="alternateBounds" />
          </mxGeometry>
        </mxCell>
        <mxCell id="BA8NR5xpLqI8vCSCT3HV-50" value="" style="shape=tableRow;horizontal=0;startSize=0;swimlaneHead=0;swimlaneBody=0;strokeColor=inherit;top=0;left=0;bottom=0;right=0;collapsible=0;dropTarget=0;fillColor=none;points=[[0,0.5],[1,0.5]];portConstraint=eastwest;" vertex="1" parent="BA8NR5xpLqI8vCSCT3HV-41">
          <mxGeometry y="84" width="90" height="21" as="geometry" />
        </mxCell>
        <mxCell id="BA8NR5xpLqI8vCSCT3HV-51" value="filter" style="shape=partialRectangle;html=1;whiteSpace=wrap;connectable=0;strokeColor=#6c8ebf;overflow=hidden;fillColor=#dae8fc;top=0;left=0;bottom=0;right=0;pointerEvents=1;" vertex="1" parent="BA8NR5xpLqI8vCSCT3HV-50">
          <mxGeometry width="90" height="21" as="geometry">
            <mxRectangle width="90" height="21" as="alternateBounds" />
          </mxGeometry>
        </mxCell>
        <mxCell id="BA8NR5xpLqI8vCSCT3HV-58" value="" style="shape=table;startSize=0;container=1;collapsible=0;childLayout=tableLayout;comic=1;fillColor=#dae8fc;strokeColor=#6c8ebf;" vertex="1" parent="1">
          <mxGeometry x="600" y="300" width="100" height="60" as="geometry" />
        </mxCell>
        <mxCell id="BA8NR5xpLqI8vCSCT3HV-59" value="" style="shape=tableRow;horizontal=0;startSize=0;swimlaneHead=0;swimlaneBody=0;strokeColor=inherit;top=0;left=0;bottom=0;right=0;collapsible=0;dropTarget=0;fillColor=none;points=[[0,0.5],[1,0.5]];portConstraint=eastwest;" vertex="1" parent="BA8NR5xpLqI8vCSCT3HV-58">
          <mxGeometry width="100" height="20" as="geometry" />
        </mxCell>
        <mxCell id="BA8NR5xpLqI8vCSCT3HV-60" value="POSTROUTING" style="shape=partialRectangle;html=1;whiteSpace=wrap;connectable=0;strokeColor=#b85450;overflow=hidden;fillColor=#f8cecc;top=0;left=0;bottom=0;right=0;pointerEvents=1;" vertex="1" parent="BA8NR5xpLqI8vCSCT3HV-59">
          <mxGeometry width="100" height="20" as="geometry">
            <mxRectangle width="100" height="20" as="alternateBounds" />
          </mxGeometry>
        </mxCell>
        <mxCell id="BA8NR5xpLqI8vCSCT3HV-61" value="" style="shape=tableRow;horizontal=0;startSize=0;swimlaneHead=0;swimlaneBody=0;strokeColor=inherit;top=0;left=0;bottom=0;right=0;collapsible=0;dropTarget=0;fillColor=none;points=[[0,0.5],[1,0.5]];portConstraint=eastwest;" vertex="1" parent="BA8NR5xpLqI8vCSCT3HV-58">
          <mxGeometry y="20" width="100" height="21" as="geometry" />
        </mxCell>
        <mxCell id="BA8NR5xpLqI8vCSCT3HV-62" value="mangle" style="shape=partialRectangle;html=1;whiteSpace=wrap;connectable=0;strokeColor=inherit;overflow=hidden;fillColor=none;top=0;left=0;bottom=0;right=0;pointerEvents=1;" vertex="1" parent="BA8NR5xpLqI8vCSCT3HV-61">
          <mxGeometry width="100" height="21" as="geometry">
            <mxRectangle width="100" height="21" as="alternateBounds" />
          </mxGeometry>
        </mxCell>
        <mxCell id="BA8NR5xpLqI8vCSCT3HV-63" value="" style="shape=tableRow;horizontal=0;startSize=0;swimlaneHead=0;swimlaneBody=0;strokeColor=inherit;top=0;left=0;bottom=0;right=0;collapsible=0;dropTarget=0;fillColor=none;points=[[0,0.5],[1,0.5]];portConstraint=eastwest;" vertex="1" parent="BA8NR5xpLqI8vCSCT3HV-58">
          <mxGeometry y="41" width="100" height="19" as="geometry" />
        </mxCell>
        <mxCell id="BA8NR5xpLqI8vCSCT3HV-64" value="nat" style="shape=partialRectangle;html=1;whiteSpace=wrap;connectable=0;strokeColor=inherit;overflow=hidden;fillColor=none;top=0;left=0;bottom=0;right=0;pointerEvents=1;" vertex="1" parent="BA8NR5xpLqI8vCSCT3HV-63">
          <mxGeometry width="100" height="19" as="geometry">
            <mxRectangle width="100" height="19" as="alternateBounds" />
          </mxGeometry>
        </mxCell>
        <mxCell id="BA8NR5xpLqI8vCSCT3HV-70" style="edgeStyle=orthogonalEdgeStyle;rounded=0;orthogonalLoop=1;jettySize=auto;html=1;exitX=1;exitY=0.5;exitDx=0;exitDy=0;exitPerimeter=0;entryX=0;entryY=0.5;entryDx=0;entryDy=0;" edge="1" parent="1" source="BA8NR5xpLqI8vCSCT3HV-65" target="BA8NR5xpLqI8vCSCT3HV-35">
          <mxGeometry relative="1" as="geometry" />
        </mxCell>
        <mxCell id="BA8NR5xpLqI8vCSCT3HV-73" style="edgeStyle=orthogonalEdgeStyle;rounded=0;orthogonalLoop=1;jettySize=auto;html=1;exitX=0.5;exitY=0;exitDx=0;exitDy=0;exitPerimeter=0;entryX=1;entryY=0.5;entryDx=0;entryDy=0;" edge="1" parent="1" source="BA8NR5xpLqI8vCSCT3HV-65" target="BA8NR5xpLqI8vCSCT3HV-26">
          <mxGeometry relative="1" as="geometry">
            <Array as="points">
              <mxPoint x="285" y="290" />
              <mxPoint x="315" y="290" />
              <mxPoint x="315" y="183" />
            </Array>
          </mxGeometry>
        </mxCell>
        <mxCell id="BA8NR5xpLqI8vCSCT3HV-65" value="是否为本机" style="strokeWidth=2;html=1;shape=mxgraph.flowchart.decision;whiteSpace=wrap;comic=1;fillColor=#e1d5e7;strokeColor=#9673a6;" vertex="1" parent="1">
          <mxGeometry x="250" y="310" width="70" height="50" as="geometry" />
        </mxCell>
        <mxCell id="BA8NR5xpLqI8vCSCT3HV-67" style="edgeStyle=orthogonalEdgeStyle;rounded=0;orthogonalLoop=1;jettySize=auto;html=1;exitX=0;exitY=0.5;exitDx=0;exitDy=0;startArrow=classic;startFill=1;endArrow=none;endFill=0;" edge="1" parent="1" source="BA8NR5xpLqI8vCSCT3HV-17">
          <mxGeometry relative="1" as="geometry">
            <mxPoint x="90" y="520" as="targetPoint" />
          </mxGeometry>
        </mxCell>
        <mxCell id="BA8NR5xpLqI8vCSCT3HV-68" value="&lt;span style=&quot;font-size: 16px;&quot;&gt;数据包入口&lt;/span&gt;" style="text;html=1;align=center;verticalAlign=middle;resizable=0;points=[];autosize=1;strokeColor=none;fillColor=none;" vertex="1" parent="1">
          <mxGeometry x="95" y="500" width="100" height="30" as="geometry" />
        </mxCell>
        <mxCell id="BA8NR5xpLqI8vCSCT3HV-69" style="edgeStyle=orthogonalEdgeStyle;rounded=0;orthogonalLoop=1;jettySize=auto;html=1;exitX=1;exitY=0.5;exitDx=0;exitDy=0;entryX=0;entryY=0.5;entryDx=0;entryDy=0;entryPerimeter=0;" edge="1" parent="1" source="BA8NR5xpLqI8vCSCT3HV-17" target="BA8NR5xpLqI8vCSCT3HV-65">
          <mxGeometry relative="1" as="geometry">
            <Array as="points">
              <mxPoint x="220" y="311" />
              <mxPoint x="220" y="335" />
            </Array>
          </mxGeometry>
        </mxCell>
        <mxCell id="BA8NR5xpLqI8vCSCT3HV-71" style="edgeStyle=orthogonalEdgeStyle;rounded=0;orthogonalLoop=1;jettySize=auto;html=1;exitX=1;exitY=0.5;exitDx=0;exitDy=0;" edge="1" parent="1" source="BA8NR5xpLqI8vCSCT3HV-35" target="BA8NR5xpLqI8vCSCT3HV-59">
          <mxGeometry relative="1" as="geometry" />
        </mxCell>
        <mxCell id="BA8NR5xpLqI8vCSCT3HV-72" value="&lt;span style=&quot;font-size: 16px;&quot;&gt;否&lt;/span&gt;" style="text;html=1;align=center;verticalAlign=middle;resizable=0;points=[];autosize=1;strokeColor=none;fillColor=none;" vertex="1" parent="1">
          <mxGeometry x="310" y="300" width="40" height="30" as="geometry" />
        </mxCell>
        <mxCell id="BA8NR5xpLqI8vCSCT3HV-75" style="edgeStyle=orthogonalEdgeStyle;rounded=0;orthogonalLoop=1;jettySize=auto;html=1;exitX=0;exitY=0.5;exitDx=0;exitDy=0;entryX=0.027;entryY=1.04;entryDx=0;entryDy=0;entryPerimeter=0;" edge="1" parent="1" source="BA8NR5xpLqI8vCSCT3HV-26" target="BA8NR5xpLqI8vCSCT3HV-3">
          <mxGeometry relative="1" as="geometry">
            <Array as="points">
              <mxPoint x="184" y="183" />
            </Array>
          </mxGeometry>
        </mxCell>
        <mxCell id="BA8NR5xpLqI8vCSCT3HV-76" style="edgeStyle=orthogonalEdgeStyle;rounded=0;orthogonalLoop=1;jettySize=auto;html=1;exitX=0;exitY=0.5;exitDx=0;exitDy=0;entryX=0.562;entryY=0.987;entryDx=0;entryDy=0;entryPerimeter=0;startArrow=classic;startFill=1;endArrow=none;endFill=0;" edge="1" parent="1" source="BA8NR5xpLqI8vCSCT3HV-42" target="BA8NR5xpLqI8vCSCT3HV-3">
          <mxGeometry relative="1" as="geometry" />
        </mxCell>
        <mxCell id="BA8NR5xpLqI8vCSCT3HV-77" style="edgeStyle=orthogonalEdgeStyle;rounded=0;orthogonalLoop=1;jettySize=auto;html=1;exitX=1;exitY=0.5;exitDx=0;exitDy=0;entryX=0;entryY=0.5;entryDx=0;entryDy=0;" edge="1" parent="1" source="BA8NR5xpLqI8vCSCT3HV-42" target="BA8NR5xpLqI8vCSCT3HV-59">
          <mxGeometry relative="1" as="geometry">
            <Array as="points">
              <mxPoint x="590" y="183" />
              <mxPoint x="590" y="290" />
              <mxPoint x="560" y="290" />
              <mxPoint x="560" y="310" />
            </Array>
          </mxGeometry>
        </mxCell>
        <mxCell id="BA8NR5xpLqI8vCSCT3HV-78" style="edgeStyle=orthogonalEdgeStyle;rounded=0;orthogonalLoop=1;jettySize=auto;html=1;exitX=1;exitY=0.5;exitDx=0;exitDy=0;" edge="1" parent="1" source="BA8NR5xpLqI8vCSCT3HV-59">
          <mxGeometry relative="1" as="geometry">
            <mxPoint x="720" y="530" as="targetPoint" />
          </mxGeometry>
        </mxCell>
        <mxCell id="BA8NR5xpLqI8vCSCT3HV-79" value="&lt;span style=&quot;font-size: 16px;&quot;&gt;数据包出口&lt;/span&gt;" style="text;html=1;align=center;verticalAlign=middle;resizable=0;points=[];autosize=1;strokeColor=none;fillColor=none;" vertex="1" parent="1">
          <mxGeometry x="610" y="500" width="100" height="30" as="geometry" />
        </mxCell>
        <mxCell id="BA8NR5xpLqI8vCSCT3HV-80" value="&lt;span style=&quot;font-size: 16px;&quot;&gt;是&lt;/span&gt;" style="text;html=1;align=center;verticalAlign=middle;resizable=0;points=[];autosize=1;strokeColor=none;fillColor=none;" vertex="1" parent="1">
          <mxGeometry x="270" y="260" width="40" height="30" as="geometry" />
        </mxCell>
      </root>
    </mxGraphModel>
  </diagram>
</mxfile>
